# xmcd CD database file
#
# Track frame offsets:
#	150
#	17877
#	31775
#	50592
#	72695
#	95377
#	115862
#	136332
#	163010
#	188452
#	211272
#	231552
#	252517
#	275290
#
# Disc length: 3971 seconds
#
# Revision: 0
# Processed by: cddbd v1.4PL0 Copyright (c) Steve Scherf et al.
# Submitted via: CDex 1.50beta9
#
DISCID=c70f810e
DTITLE=Various Artist - 100% SALSA
DYEAR=1995
DGENRE=Salsa
TTITLE0=QUE LASTIMA
TTITLE1=AZUCAR NEGRA
TTITLE2=SUENO CONTIGO
TTITLE3=PELIGROSO AMOR
TTITLE4=APARENTEMENTE
TTITLE5=CRAZY FOR YOU
TTITLE6=OTRA NOCHE CALIENTE
TTITLE7=CELIA Y TITO
TTITLE8=MI PRIMERA RUMBA
TTITLE9=I'LL ALWAYS LOVE YOU
TTITLE10=ME FASCINA ESA MUJER
TTITLE11=POR ESO ESTA CONMIGO
TTITLE12=A PESAR DE TODO
TTITLE13=PALABRAS DEL ALMA
EXTD=YEAR: 1995
EXTT0=
EXTT1=
EXTT2=
EXTT3=
EXTT4=
EXTT5=
EXTT6=
EXTT7=
EXTT8=
EXTT9=
EXTT10=
EXTT11=
EXTT12=
EXTT13=
PLAYORDER=
